Coordinates
version=1
nRows=17
nColumns=36
inDegrees=yes

Units are S.I. units (second, meters, Newtons, ...)
If the header above contains a line with 'inDegrees', this indicates whether rotational values are in degrees (yes) or radians (no).

endheader
time	pelvis_tilt	pelvis_list	pelvis_rotation	pelvis_tx	pelvis_ty	pelvis_tz	hip_flexion_r	hip_adduction_r	hip_rotation_r	knee_angle_r	knee_angle_r_beta	ankle_angle_r	subtalar_angle_r	mtp_angle_r	hip_flexion_l	hip_adduction_l	hip_rotation_l	knee_angle_l	knee_angle_l_beta	ankle_angle_l	subtalar_angle_l	mtp_angle_l	lumbar_extension	lumbar_bending	lumbar_rotation	arm_flex_r	arm_add_r	arm_rot_r	elbow_flex_r	pro_sup_r	arm_flex_l	arm_add_l	arm_rot_l	elbow_flex_l	pro_sup_l
      6.05000000	     -3.02432037	     -9.54008064	      2.27437889	      0.55826393	      0.91172301	     -0.14661676	     42.19260187	      0.88247934	     -3.71799405	     20.90906946	      0.36493211	     -2.68474696	      5.28426528	     -7.49999987	     15.16033420	     -3.20198338	      4.32906829	     20.03719189	      0.34971497	     10.16911140	     -2.02147718	     -7.49999987	    -21.10038225	     11.65330038	     -2.12109770	     41.82078314	      3.18809989	     62.32784312	    128.15627255	    106.04728076	     49.63471313	      2.31396262	     60.71287097	    130.20042057	     93.52737247
      6.06666670	     -2.94745396	     -9.70155558	      3.07857165	      0.56313273	      0.91842585	     -0.14540023	     41.19961020	      0.85471887	     -4.23538263	     21.84426970	      0.38125443	     -1.85705373	      6.05584507	     -7.49999987	     13.77478377	     -3.67372842	      3.86499395	     17.61478376	      0.30743597	      9.15949968	     -0.30608827	     -7.49999987	    -19.44211427	     11.98044394	     -2.84241599	     41.01116668	      2.96471780	     61.33475698	    128.07807704	    105.83252442	     48.95026356	      2.12665314	     60.34148823	    130.32562042	     92.86224470
      6.08333330	     -2.90097382	    -10.13828288	      3.79838444	      0.57746559	      0.92122877	     -0.14441381	     39.62844709	      1.41908316	     -4.62143501	     22.22592125	      0.38791551	     -0.83428567	      5.96697060	     -7.49999987	     12.15039413	     -4.43403905	      3.77682641	     15.25439151	      0.26623936	      8.19519542	      0.55970631	     -7.49999987	    -17.25113755	     12.41289486	     -3.73520746	     39.76327912	      2.46045036	     61.10741268	    128.32878483	    105.59182242	     47.71038349	      2.26046207	     60.82757907	    130.53716739	     92.60452869
      6.10000000	     -2.42062202	    -10.28075219	      3.99437742	      0.58125193	      0.92260183	     -0.14231109	     37.82873861	      2.08332692	     -5.19359951	     22.80849165	      0.39808328	      0.19275462	      7.04167326	     -7.49999987	     10.14843819	     -5.00423911	      2.73784229	     13.03962643	      0.22758441	      7.42082891	      1.86941898	     -7.49999987	    -15.81526395	     12.39568969	     -4.53824602	     38.30197073	      2.38758393	     60.25009422	    128.28267635	    105.37131132	     46.46098239	      2.03486334	     60.79570363	    131.06779917	     92.08377212
      6.11666670	     -1.89947085	    -10.67572782	      4.12842322	      0.58510905	      0.92022949	     -0.13991613	     36.53208076	      2.79679461	     -5.88102208	     24.22804097	      0.42285909	      0.99033164	      7.48429822	     -7.49999987	      8.56131958	     -5.81466240	      2.23039429	     11.53689639	      0.20135683	      7.60250796	      2.55406654	     -7.49999987	    -14.30141275	     12.71171284	     -4.96025117	     37.57526118	      2.18547097	     60.05406729	    128.48446331	    105.10063068	     45.60871522	      1.88552727	     60.91566029	    131.31673400	     91.85136761
      6.13333330	     -1.23142049	    -10.62252231	      4.02182793	      0.58927301	      0.92170121	     -0.13843301	     35.06817007	      3.14427769	     -6.13544266	     25.86081988	      0.45135645	      2.92485310	      8.59439579	     -7.49999987	      6.81107747	     -6.19119174	      0.41826706	     10.18236936	      0.17771587	      8.29198595	      5.10648331	     -7.49999987	    -12.88548222	     12.27104400	     -5.80590583	     36.57600515	      2.44571830	     59.58583157	    128.14662396	    102.21077279	     44.53166956	      1.44357234	     60.34056382	    131.75189339	     84.84623733
      6.15000000	     -1.01098923	    -10.52768760	      3.85860582	      0.59427109	      0.92464479	     -0.13597722	     33.84361642	      3.45636791	     -5.93939146	     27.86686112	      0.48636848	      4.18330971	      8.89461253	     -7.49999987	      5.43490973	     -6.37205231	     -0.42568147	      8.66717603	      0.15127076	      8.15342293	      5.92441346	     -7.49999987	    -11.19063699	     11.80804113	     -6.29836617	     35.54893295	      2.61902015	     59.67249519	    128.25967905	    101.97147251	     43.58717513	      1.57841818	     60.49212760	    131.94418198	     84.65478017
      6.16666670	     -0.90320884	    -10.27646847	      3.76501261	      0.59477080	      0.92319536	     -0.13699002	     32.98064830	      3.25013552	     -5.76148817	     29.65538796	      0.51758416	      4.90176137	      8.63970139	     -7.49999987	      4.68225902	     -6.24243483	     -1.41216125	      7.65761220	      0.13365055	      8.63565239	      7.52872366	     -7.49999987	     -9.59040468	     11.29159222	     -6.79737330	     34.75621614	      2.92752314	     60.00617774	    128.27701894	    101.74544878	     43.08829240	      1.74968095	     60.42807987	    131.97213981	     84.00795042
      6.18333330	     -0.79720876	     -9.62054037	      3.96954128	      0.59552851	      0.91950996	     -0.13672231	     32.19837944	      2.79702181	     -5.88521665	     32.15522368	      0.56121452	      5.77838191	      7.62040804	     -7.49999987	      4.22854471	     -5.53244618	     -1.68533920	      7.11776296	      0.12422840	      9.03008422	      7.82082533	     -7.49999987	     -8.40493036	     10.32151502	     -7.23681808	     34.07139146	      3.26004923	     60.38965990	    128.10712472	    100.92894023	     42.84792053	      1.97992157	     60.53477010	    131.84846889	     83.42883495
      6.20000000	     -0.77581254	     -9.11173525	      3.57239420	      0.59880935	      0.92213462	     -0.13379533	     31.49494397	      2.57504405	     -6.14502918	     33.87356950	      0.59120532	      5.79350689	      6.39768299	     -7.49999987	      3.55636570	     -5.08906954	     -2.83259531	      6.39724416	      0.11165297	      9.36172416	      9.10580832	     -7.49999987	     -7.18434456	      9.39497034	     -7.48585996	     33.71175521	      3.74599501	     60.61072220	    127.57120503	    100.73635619	     42.58267247	      1.82383205	     60.25426888	    131.59717006	     82.48063321
      6.21666670	     -0.73188102	     -8.59157098	      3.53227471	      0.59575669	      0.92011491	     -0.13559415	     30.99186818	      2.16781224	     -6.49732109	     35.52237701	      0.61998244	      5.53702033	      5.90377812	     -7.49999987	      3.45357336	     -4.44784213	     -3.04357129	      6.41824875	      0.11201957	      9.48507114	      8.95111506	     -7.49999987	     -6.34755762	      8.73691505	     -7.76963024	     33.63946555	      4.09421882	     60.64179961	    127.03459310	    100.05253824	     42.35125707	      1.71227050	     60.25497131	    131.49862405	     77.15135157
      6.23333330	     -0.39153489	     -8.05845025	      3.59263638	      0.60361640	      0.91481255	     -0.13712408	     29.93835985	      1.60408685	     -6.85891344	     38.05527450	      0.66418984	      6.17474030	      5.37912497	     -7.49999987	      2.89822933	     -3.78036084	     -2.55809306	      6.61393367	      0.11543492	      9.97792610	      8.88171692	     -7.49999987	     -5.62278369	      8.05268856	     -8.16455935	     33.34634152	      4.31640667	     60.19845768	    126.60120637	     97.46863721	     41.73082689	      1.88061552	     59.88279715	    131.04809227	     75.54938037
      6.25000000	     -0.23139670	     -7.54377448	      3.86185443	      0.59995808	      0.91609474	     -0.13322881	     29.28505632	      1.09779786	     -7.26069154	     40.04081786	      0.69884411	      6.18047213	      5.10678142	     -7.49999987	      2.98097019	     -3.23732875	     -2.68571270	      7.24147213	      0.12638753	     10.81887974	      8.78778351	     -7.49999987	     -5.23462641	      7.39439426	     -8.25485193	     33.16034440	      4.47175537	     60.05340390	    126.40116774	     97.35591563	     41.24235398	      2.04012550	     59.86357790	    130.76274474	     75.44323683
      6.26666670	     -0.24191842	     -6.91901629	      4.16929753	      0.59944450	      0.91378269	     -0.13325312	     28.86501099	      0.35511902	     -7.79450503	     42.42649535	      0.74048203	      6.57496509	      5.15153415	     -7.49999987	      3.60343411	     -2.59378832	     -2.47611647	      8.46300374	      0.14770728	     11.32333588	      8.40935926	     -7.49999987	     -4.68631327	      6.47866477	     -8.40462613	     32.90277290	      4.63453839	     59.48140257	    126.26259493	     97.35628501	     40.74770853	      2.20098697	     59.73632197	    130.36071287	     75.11384020
      6.28333330	     -0.01587819	     -6.56968206	      4.35749837	      0.60383230	      0.91406919	     -0.13012607	     27.81067638	      0.25945924	     -7.82371995	     44.14594277	      0.77049205	      7.27503938	      4.80995959	     -7.49999987	      3.67139601	     -2.34826902	     -2.37918620	      9.29358740	      0.16220370	     11.49497311	      8.36905045	     -7.49999987	     -4.61503756	      5.86269180	     -8.52753636	     32.55896086	      4.63865779	     59.54010133	    126.35595558	     97.29214484	     40.03586473	      2.16078012	     59.79840365	    130.10959526	     75.03088429
      6.30000000	      0.17465708	     -6.03063195	      4.77561129	      0.60304367	      0.91034823	     -0.13043722	     27.27928667	     -0.35348960	     -7.78502421	     46.13670672	      0.80523744	      8.55786303	      4.35694308	     -7.49999987	      3.72958369	     -1.84413872	     -2.01661934	     10.23958224	      0.17871442	     12.20210072	      8.41457991	     -7.49999987	     -4.39001061	      5.01420134	     -8.97910841	     32.40265799	      4.72749494	     59.36853181	    126.96143657	     97.41266338	     39.82829544	      2.13993049	     59.40922152	    129.95492723	     74.90939169
      6.31666670	     -0.02408745	     -5.59099964	      5.16083420	      0.60369327	      0.91077471	     -0.12998111	     26.41889785	     -0.83200066	     -8.21913480	     47.18276944	      0.82349468	      9.38863352	      4.33570715	     -7.49999987	      4.23909248	     -1.37382393	     -1.26039409	     10.90331148	      0.19029868	     12.68551131	      8.45667372	     -7.49999987	     -3.54252875	      4.25466079	     -9.19233496	     31.95572541	      4.62872580	     58.98505676	    127.44963031	     97.37514818	     39.35625347	      2.06300009	     58.91647791	    129.58138000	     74.55752972
